<mxfile host="app.diagrams.net" modified="2023-10-10T14:00:01.622Z" agent="Mozilla/5.0 (Windows NT 10.0; Win64; x64; rv:109.0) Gecko/20100101 Firefox/115.0" etag="1tGeiVcJ9150Y-SSU5fp" version="22.0.4" type="device">
  <diagram id="C5RBs43oDa-KdzZeNtuy" name="Page-1">
    <mxGraphModel dx="1223" dy="795" grid="1" gridSize="10" guides="1" tooltips="1" connect="1" arrows="1" fold="1" page="1" pageScale="1" pageWidth="827" pageHeight="1169" math="0" shadow="0">
      <root>
        <mxCell id="WIyWlLk6GJQsqaUBKTNV-0" />
        <mxCell id="WIyWlLk6GJQsqaUBKTNV-1" parent="WIyWlLk6GJQsqaUBKTNV-0" />
        <mxCell id="P957TopzgWEThrK0zeOo-16" value="&lt;div&gt;Test environment life cycle - describes which states an environment for a specific Boost Union commit goes through&lt;br&gt;&lt;/div&gt;" style="swimlane;whiteSpace=wrap;html=1;startSize=20;shadow=1;swimlaneLine=1;" vertex="1" parent="WIyWlLk6GJQsqaUBKTNV-1">
          <mxGeometry x="20" y="20" width="1020" height="670" as="geometry" />
        </mxCell>
        <mxCell id="P957TopzgWEThrK0zeOo-92" value="" style="shape=waypoint;size=6;pointerEvents=1;points=[];resizable=0;rotatable=0;perimeter=centerPerimeter;snapToPoint=1;rounded=0;strokeWidth=5;perimeterSpacing=0;shadow=1;fillColor=#f5f5f5;fontColor=#333333;strokeColor=#666666;" vertex="1" parent="P957TopzgWEThrK0zeOo-16">
          <mxGeometry x="940" y="59" width="20" height="20" as="geometry" />
        </mxCell>
        <mxCell id="P957TopzgWEThrK0zeOo-18" value="" style="shape=waypoint;sketch=0;size=6;pointerEvents=1;points=[];fillColor=default;resizable=0;rotatable=0;perimeter=centerPerimeter;snapToPoint=1;rounded=0;strokeColor=none;gradientColor=none;" vertex="1" parent="P957TopzgWEThrK0zeOo-16">
          <mxGeometry x="184" y="60" width="20" height="20" as="geometry" />
        </mxCell>
        <mxCell id="P957TopzgWEThrK0zeOo-97" style="edgeStyle=orthogonalEdgeStyle;rounded=0;orthogonalLoop=1;jettySize=auto;html=1;" edge="1" parent="P957TopzgWEThrK0zeOo-16" source="P957TopzgWEThrK0zeOo-22" target="P957TopzgWEThrK0zeOo-2">
          <mxGeometry relative="1" as="geometry" />
        </mxCell>
        <mxCell id="P957TopzgWEThrK0zeOo-98" value="&lt;div&gt;setup name gitreftype gitref&lt;br&gt;setup smart-menus pr 300&lt;/div&gt;" style="edgeLabel;html=1;align=center;verticalAlign=middle;resizable=0;points=[];labelPosition=center;verticalLabelPosition=middle;labelBorderColor=none;" vertex="1" connectable="0" parent="P957TopzgWEThrK0zeOo-97">
          <mxGeometry relative="1" as="geometry">
            <mxPoint as="offset" />
          </mxGeometry>
        </mxCell>
        <mxCell id="P957TopzgWEThrK0zeOo-22" value="" style="shape=waypoint;sketch=0;size=6;pointerEvents=1;points=[];fillColor=#f5f5f5;resizable=0;rotatable=0;perimeter=centerPerimeter;snapToPoint=1;rounded=0;strokeWidth=5;strokeColor=#666666;fillStyle=solid;shadow=1;fontColor=#333333;" vertex="1" parent="P957TopzgWEThrK0zeOo-16">
          <mxGeometry x="50" y="60" width="20" height="20" as="geometry" />
        </mxCell>
        <mxCell id="P957TopzgWEThrK0zeOo-24" value="&lt;font style=&quot;font-size: 12px;&quot;&gt;start&lt;/font&gt;" style="text;strokeColor=none;fillColor=none;html=1;fontSize=24;fontStyle=1;verticalAlign=middle;align=center;" vertex="1" parent="P957TopzgWEThrK0zeOo-16">
          <mxGeometry x="10" y="20" width="100" height="40" as="geometry" />
        </mxCell>
        <mxCell id="P957TopzgWEThrK0zeOo-54" value="" style="edgeStyle=orthogonalEdgeStyle;rounded=0;orthogonalLoop=1;jettySize=auto;html=1;shadow=1;" edge="1" parent="P957TopzgWEThrK0zeOo-16" source="P957TopzgWEThrK0zeOo-2" target="P957TopzgWEThrK0zeOo-53">
          <mxGeometry relative="1" as="geometry" />
        </mxCell>
        <mxCell id="P957TopzgWEThrK0zeOo-2" value="&lt;div&gt;setup&lt;/div&gt;" style="rounded=0;whiteSpace=wrap;html=1;shadow=1;" vertex="1" parent="P957TopzgWEThrK0zeOo-16">
          <mxGeometry x="250" y="40" width="120" height="60" as="geometry" />
        </mxCell>
        <mxCell id="P957TopzgWEThrK0zeOo-57" style="edgeStyle=orthogonalEdgeStyle;rounded=0;orthogonalLoop=1;jettySize=auto;html=1;exitX=0.5;exitY=1;exitDx=0;exitDy=0;entryX=0.5;entryY=0;entryDx=0;entryDy=0;" edge="1" parent="P957TopzgWEThrK0zeOo-16" source="P957TopzgWEThrK0zeOo-53" target="P957TopzgWEThrK0zeOo-28">
          <mxGeometry relative="1" as="geometry">
            <Array as="points">
              <mxPoint x="510" y="230" />
            </Array>
          </mxGeometry>
        </mxCell>
        <mxCell id="P957TopzgWEThrK0zeOo-58" value="build ver1 [ver2 ...]&lt;div&gt;build 4.1.5 4.2.2&lt;/div&gt;" style="edgeLabel;html=1;align=center;verticalAlign=middle;resizable=0;points=[];" vertex="1" connectable="0" parent="P957TopzgWEThrK0zeOo-57">
          <mxGeometry relative="1" as="geometry">
            <mxPoint y="-40" as="offset" />
          </mxGeometry>
        </mxCell>
        <mxCell id="P957TopzgWEThrK0zeOo-53" value="" style="rhombus;whiteSpace=wrap;html=1;rounded=0;shadow=1;" vertex="1" parent="P957TopzgWEThrK0zeOo-16">
          <mxGeometry x="470" y="30" width="80" height="80" as="geometry" />
        </mxCell>
        <mxCell id="P957TopzgWEThrK0zeOo-93" value="" style="edgeStyle=orthogonalEdgeStyle;rounded=0;orthogonalLoop=1;jettySize=auto;html=1;" edge="1" parent="P957TopzgWEThrK0zeOo-16" target="P957TopzgWEThrK0zeOo-92">
          <mxGeometry relative="1" as="geometry">
            <mxPoint x="810" y="69" as="sourcePoint" />
          </mxGeometry>
        </mxCell>
        <mxCell id="P957TopzgWEThrK0zeOo-55" value="torn down" style="whiteSpace=wrap;html=1;rounded=0;glass=0;shadow=1;" vertex="1" parent="P957TopzgWEThrK0zeOo-16">
          <mxGeometry x="750" y="40" width="120" height="60" as="geometry" />
        </mxCell>
        <mxCell id="P957TopzgWEThrK0zeOo-56" value="" style="edgeStyle=orthogonalEdgeStyle;rounded=0;orthogonalLoop=1;jettySize=auto;html=1;" edge="1" parent="P957TopzgWEThrK0zeOo-16" source="P957TopzgWEThrK0zeOo-53" target="P957TopzgWEThrK0zeOo-55">
          <mxGeometry relative="1" as="geometry" />
        </mxCell>
        <mxCell id="P957TopzgWEThrK0zeOo-59" value="teardown name&lt;br&gt;teardown start-menus" style="edgeLabel;html=1;align=center;verticalAlign=middle;resizable=0;points=[];" vertex="1" connectable="0" parent="P957TopzgWEThrK0zeOo-56">
          <mxGeometry relative="1" as="geometry">
            <mxPoint as="offset" />
          </mxGeometry>
        </mxCell>
        <mxCell id="P957TopzgWEThrK0zeOo-15" value="&lt;div&gt;Moodle test containers life cycle - describes which states a container with a specific Moodle version for said Boost Union commit goes through&lt;/div&gt;" style="swimlane;whiteSpace=wrap;html=1;shadow=1;" vertex="1" parent="P957TopzgWEThrK0zeOo-16">
          <mxGeometry x="70" y="180" width="900" height="470" as="geometry">
            <mxRectangle x="140" y="180" width="850" height="30" as="alternateBounds" />
          </mxGeometry>
        </mxCell>
        <mxCell id="P957TopzgWEThrK0zeOo-62" value="" style="edgeStyle=orthogonalEdgeStyle;rounded=0;orthogonalLoop=1;jettySize=auto;html=1;" edge="1" parent="P957TopzgWEThrK0zeOo-15" source="P957TopzgWEThrK0zeOo-28" target="P957TopzgWEThrK0zeOo-68">
          <mxGeometry relative="1" as="geometry">
            <mxPoint x="440" y="210" as="targetPoint" />
          </mxGeometry>
        </mxCell>
        <mxCell id="P957TopzgWEThrK0zeOo-91" value="start ver1 [ver2 ...]&lt;br&gt;&lt;div&gt;start 4.1.5&lt;/div&gt;" style="edgeLabel;html=1;align=center;verticalAlign=middle;resizable=0;points=[];" vertex="1" connectable="0" parent="P957TopzgWEThrK0zeOo-62">
          <mxGeometry relative="1" as="geometry">
            <mxPoint as="offset" />
          </mxGeometry>
        </mxCell>
        <mxCell id="P957TopzgWEThrK0zeOo-83" style="edgeStyle=orthogonalEdgeStyle;rounded=0;orthogonalLoop=1;jettySize=auto;html=1;entryX=0.5;entryY=0;entryDx=0;entryDy=0;" edge="1" parent="P957TopzgWEThrK0zeOo-15" source="P957TopzgWEThrK0zeOo-28" target="P957TopzgWEThrK0zeOo-81">
          <mxGeometry relative="1" as="geometry">
            <mxPoint x="600" y="110" as="targetPoint" />
          </mxGeometry>
        </mxCell>
        <mxCell id="P957TopzgWEThrK0zeOo-28" value="created" style="rounded=0;whiteSpace=wrap;html=1;rotation=0;shadow=1;" vertex="1" parent="P957TopzgWEThrK0zeOo-15">
          <mxGeometry x="380" y="80" width="120" height="60" as="geometry" />
        </mxCell>
        <mxCell id="P957TopzgWEThrK0zeOo-63" value="&lt;div&gt;removed&lt;/div&gt;" style="whiteSpace=wrap;html=1;rounded=0;shadow=1;" vertex="1" parent="P957TopzgWEThrK0zeOo-15">
          <mxGeometry x="680" y="80" width="120" height="60" as="geometry" />
        </mxCell>
        <mxCell id="P957TopzgWEThrK0zeOo-71" value="" style="edgeStyle=orthogonalEdgeStyle;rounded=0;orthogonalLoop=1;jettySize=auto;html=1;" edge="1" parent="P957TopzgWEThrK0zeOo-15" source="P957TopzgWEThrK0zeOo-68" target="P957TopzgWEThrK0zeOo-70">
          <mxGeometry relative="1" as="geometry">
            <Array as="points">
              <mxPoint x="360" y="240" />
              <mxPoint x="360" y="240" />
            </Array>
          </mxGeometry>
        </mxCell>
        <mxCell id="P957TopzgWEThrK0zeOo-73" value="restart ver1 [ver2 ...]&lt;br&gt;restart 4.1.5" style="edgeLabel;html=1;align=center;verticalAlign=middle;resizable=0;points=[];" vertex="1" connectable="0" parent="P957TopzgWEThrK0zeOo-71">
          <mxGeometry relative="1" as="geometry">
            <mxPoint as="offset" />
          </mxGeometry>
        </mxCell>
        <mxCell id="P957TopzgWEThrK0zeOo-78" value="" style="edgeStyle=orthogonalEdgeStyle;rounded=0;orthogonalLoop=1;jettySize=auto;html=1;" edge="1" parent="P957TopzgWEThrK0zeOo-15" source="P957TopzgWEThrK0zeOo-68" target="P957TopzgWEThrK0zeOo-77">
          <mxGeometry relative="1" as="geometry">
            <Array as="points">
              <mxPoint x="470" y="360" />
              <mxPoint x="470" y="360" />
            </Array>
          </mxGeometry>
        </mxCell>
        <mxCell id="P957TopzgWEThrK0zeOo-90" value="&lt;div&gt;stop ver1 [ver2 ...]&lt;/div&gt;stop 4.1.5" style="edgeLabel;html=1;align=center;verticalAlign=middle;resizable=0;points=[];" vertex="1" connectable="0" parent="P957TopzgWEThrK0zeOo-78">
          <mxGeometry relative="1" as="geometry">
            <mxPoint x="22" as="offset" />
          </mxGeometry>
        </mxCell>
        <mxCell id="P957TopzgWEThrK0zeOo-82" value="" style="edgeStyle=orthogonalEdgeStyle;rounded=0;orthogonalLoop=1;jettySize=auto;html=1;" edge="1" parent="P957TopzgWEThrK0zeOo-15" source="P957TopzgWEThrK0zeOo-68" target="P957TopzgWEThrK0zeOo-81">
          <mxGeometry relative="1" as="geometry" />
        </mxCell>
        <mxCell id="P957TopzgWEThrK0zeOo-68" value="&lt;div&gt;running&lt;/div&gt;" style="whiteSpace=wrap;html=1;rounded=0;shadow=1;" vertex="1" parent="P957TopzgWEThrK0zeOo-15">
          <mxGeometry x="380" y="220" width="120" height="60" as="geometry" />
        </mxCell>
        <mxCell id="P957TopzgWEThrK0zeOo-72" style="edgeStyle=orthogonalEdgeStyle;rounded=0;orthogonalLoop=1;jettySize=auto;html=1;exitX=1;exitY=0.75;exitDx=0;exitDy=0;entryX=0;entryY=0.75;entryDx=0;entryDy=0;" edge="1" parent="P957TopzgWEThrK0zeOo-15" source="P957TopzgWEThrK0zeOo-70" target="P957TopzgWEThrK0zeOo-68">
          <mxGeometry relative="1" as="geometry" />
        </mxCell>
        <mxCell id="P957TopzgWEThrK0zeOo-70" value="&lt;div&gt;restarting&lt;/div&gt;" style="whiteSpace=wrap;html=1;rounded=0;shadow=1;" vertex="1" parent="P957TopzgWEThrK0zeOo-15">
          <mxGeometry x="90" y="220" width="120" height="60" as="geometry" />
        </mxCell>
        <mxCell id="P957TopzgWEThrK0zeOo-84" style="edgeStyle=orthogonalEdgeStyle;rounded=0;orthogonalLoop=1;jettySize=auto;html=1;exitX=1;exitY=0.5;exitDx=0;exitDy=0;entryX=0.5;entryY=1;entryDx=0;entryDy=0;" edge="1" parent="P957TopzgWEThrK0zeOo-15" source="P957TopzgWEThrK0zeOo-77" target="P957TopzgWEThrK0zeOo-81">
          <mxGeometry relative="1" as="geometry" />
        </mxCell>
        <mxCell id="P957TopzgWEThrK0zeOo-88" style="edgeStyle=orthogonalEdgeStyle;rounded=0;orthogonalLoop=1;jettySize=auto;html=1;exitX=0.25;exitY=0;exitDx=0;exitDy=0;entryX=0.25;entryY=1;entryDx=0;entryDy=0;" edge="1" parent="P957TopzgWEThrK0zeOo-15" source="P957TopzgWEThrK0zeOo-77" target="P957TopzgWEThrK0zeOo-68">
          <mxGeometry relative="1" as="geometry" />
        </mxCell>
        <mxCell id="P957TopzgWEThrK0zeOo-89" value="start ver1 [ver2 ...]&lt;br&gt;&lt;div&gt;start 4.1.5&lt;/div&gt;" style="edgeLabel;html=1;align=center;verticalAlign=middle;resizable=0;points=[];" vertex="1" connectable="0" parent="P957TopzgWEThrK0zeOo-88">
          <mxGeometry relative="1" as="geometry">
            <mxPoint x="-28" as="offset" />
          </mxGeometry>
        </mxCell>
        <mxCell id="P957TopzgWEThrK0zeOo-77" value="stopped" style="whiteSpace=wrap;html=1;rounded=0;shadow=1;" vertex="1" parent="P957TopzgWEThrK0zeOo-15">
          <mxGeometry x="380" y="370" width="120" height="60" as="geometry" />
        </mxCell>
        <mxCell id="P957TopzgWEThrK0zeOo-85" style="edgeStyle=orthogonalEdgeStyle;rounded=0;orthogonalLoop=1;jettySize=auto;html=1;exitX=1;exitY=0.5;exitDx=0;exitDy=0;" edge="1" parent="P957TopzgWEThrK0zeOo-15" source="P957TopzgWEThrK0zeOo-81" target="P957TopzgWEThrK0zeOo-63">
          <mxGeometry relative="1" as="geometry" />
        </mxCell>
        <mxCell id="P957TopzgWEThrK0zeOo-87" value="destroy ver1 [ver2 ...] &lt;br&gt;destroy 4.1.5" style="edgeLabel;html=1;align=center;verticalAlign=middle;resizable=0;points=[];" vertex="1" connectable="0" parent="P957TopzgWEThrK0zeOo-85">
          <mxGeometry relative="1" as="geometry">
            <mxPoint as="offset" />
          </mxGeometry>
        </mxCell>
        <mxCell id="P957TopzgWEThrK0zeOo-81" value="" style="rhombus;whiteSpace=wrap;html=1;rounded=0;shadow=1;" vertex="1" parent="P957TopzgWEThrK0zeOo-15">
          <mxGeometry x="570" y="210" width="80" height="80" as="geometry" />
        </mxCell>
        <mxCell id="P957TopzgWEThrK0zeOo-94" value="&lt;div&gt;&lt;b&gt;end&lt;/b&gt;&lt;/div&gt;" style="text;html=1;align=center;verticalAlign=middle;resizable=0;points=[];autosize=1;strokeColor=none;fillColor=none;" vertex="1" parent="P957TopzgWEThrK0zeOo-16">
          <mxGeometry x="930" y="29" width="40" height="30" as="geometry" />
        </mxCell>
      </root>
    </mxGraphModel>
  </diagram>
</mxfile>
